<svg width="640" height="480" viewBox="0 0 640 480" xmlns="http://www.w3.org/2000/svg">
  <defs>
    <linearGradient id="bg" x1="0" y1="0" x2="1" y2="1">
      <stop offset="0%" stop-color="#1b0f2e" />
      <stop offset="55%" stop-color="#261336" />
      <stop offset="100%" stop-color="#120b20" />
    </linearGradient>
    <radialGradient id="glow" cx="0.5" cy="0.4" r="0.6">
      <stop offset="0%" stop-color="#c9a25a" stop-opacity="0.35" />
      <stop offset="70%" stop-color="#c9a25a" stop-opacity="0" />
    </radialGradient>
  </defs>
  <rect width="640" height="480" fill="url(#bg)" />
  <rect width="640" height="480" fill="url(#glow)" />

  <g opacity="0.6" stroke="#c9a25a" stroke-width="1.2" fill="none">
    <circle cx="320" cy="210" r="140" />
    <circle cx="320" cy="210" r="90" />
    <circle cx="320" cy="210" r="40" />
    <line x1="180" y1="210" x2="460" y2="210" />
    <line x1="320" y1="70" x2="320" y2="350" />
  </g>

  <g fill="#f2e6cf" opacity="0.6">
    <circle cx="90" cy="80" r="1.6" />
    <circle cx="140" cy="60" r="1.2" />
    <circle cx="500" cy="90" r="1.4" />
    <circle cx="560" cy="140" r="1.1" />
    <circle cx="80" cy="220" r="1.3" />
    <circle cx="560" cy="240" r="1.4" />
    <circle cx="120" cy="360" r="1.2" />
    <circle cx="520" cy="360" r="1.5" />
  </g>

  <g transform="translate(120 300)">
    <path
      d="M0 40 C 40 10, 80 70, 120 40 S 200 10, 240 40 S 320 70, 360 40 S 440 10, 480 40"
      fill="none"
      stroke="#c9a25a"
      stroke-width="3"
      stroke-linecap="round"
    />
    <path
      d="M0 40 C 40 10, 80 70, 120 40 S 200 10, 240 40 S 320 70, 360 40 S 440 10, 480 40"
      fill="none"
      stroke="#c9a25a"
      stroke-width="8"
      stroke-linecap="round"
      opacity="0.15"
    />
  </g>

  <g transform="translate(250 110)">
    <rect x="0" y="0" width="140" height="36" rx="18" fill="#f6f1ea" opacity="0.9" />
    <rect x="10" y="10" width="85" height="6" rx="3" fill="#c9a25a" opacity="0.6" />
    <circle cx="122" cy="18" r="6" fill="none" stroke="#c9a25a" stroke-width="2" />
  </g>
  <g transform="translate(240 160)">
    <rect x="0" y="0" width="160" height="38" rx="19" fill="#c9a25a" opacity="0.85" />
    <rect x="40" y="12" width="80" height="6" rx="3" fill="#1a1210" opacity="0.5" />
  </g>

  <g transform="translate(278 210)">
    <circle cx="42" cy="42" r="40" fill="none" stroke="#c9a25a" stroke-width="2" />
    <circle cx="42" cy="42" r="24" fill="none" stroke="#c9a25a" stroke-width="2" />
    <text x="42" y="50" font-size="18" text-anchor="middle" fill="#f6e6c7" font-family="Arial, sans-serif">7</text>
  </g>
</svg>
